<svg xmlns="http://www.w3.org/2000/svg" version="1.1" xmlns:xlink="http://www.w3.org/1999/xlink" viewBox="0 0 200 200"><rect width="200" height="200" fill="url('#gradient')"></rect><defs><linearGradient id="gradient" gradientTransform="rotate(0 0.5 0.5)"><stop offset="0%" stop-color="#191718"></stop><stop offset="100%" stop-color="#191718"></stop></linearGradient></defs><g><g fill="#fefbf8" transform="matrix(7.088257107540173,0,0,7.088257107540173,7.355188045277728,151.07292324532978)" stroke="#191718" stroke-width="0"><path d="M1.22-11.67L1.22-11.67Q1.22-12.81 2.04-13.61Q2.85-14.41 3.96-14.41L3.96-14.41Q5.06-14.41 5.85-13.61Q6.65-12.81 6.65-11.67L6.65-11.67Q6.65-10.54 5.86-9.75Q5.08-8.96 3.96-8.96L3.96-8.96Q2.83-8.96 2.03-9.75Q1.22-10.54 1.22-11.67ZM3.96-10.46L3.96-10.46Q4.48-10.46 4.81-10.81Q5.15-11.16 5.15-11.67Q5.15-12.18 4.81-12.55Q4.48-12.92 3.96-12.92Q3.45-12.92 3.09-12.55Q2.73-12.19 2.73-11.67Q2.73-11.15 3.10-10.81Q3.47-10.46 3.96-10.46ZM11.44-10.57L13.08-3.92L14.75-10.57L18.21-10.57L14.77 0L11.41 0L7.96-10.57L11.44-10.57ZM19.49-11.67L19.49-11.67Q19.49-12.81 20.31-13.61Q21.12-14.41 22.24-14.41L22.24-14.41Q23.33-14.41 24.13-13.61Q24.92-12.81 24.92-11.67L24.92-11.67Q24.92-10.54 24.14-9.75Q23.35-8.96 22.24-8.96L22.24-8.96Q21.10-8.96 20.30-9.75Q19.49-10.54 19.49-11.67ZM22.24-10.46L22.24-10.46Q22.75-10.46 23.09-10.81Q23.42-11.16 23.42-11.67Q23.42-12.18 23.09-12.55Q22.75-12.92 22.24-12.92Q21.72-12.92 21.36-12.55Q21.01-12.19 21.01-11.67Q21.01-11.15 21.37-10.81Q21.74-10.46 22.24-10.46Z"></path></g></g></svg>